<?xml version="1.0" standalone="no"?>
<!DOCTYPE svg PUBLIC "-//W3C//DTD SVG 20010904//EN"
 "http://www.w3.org/TR/2001/REC-SVG-20010904/DTD/svg10.dtd">
<svg version="1.0" xmlns="http://www.w3.org/2000/svg"
 width="1000.000000pt" height="832.000000pt" viewBox="0 0 1000.000000 832.000000"
 preserveAspectRatio="xMidYMid meet">
<metadata>
Created by potrace 1.16, written by Peter Selinger 2001-2019
</metadata>
<g transform="translate(0.000000,832.000000) scale(0.100000,-0.100000)"
fill="#000000" stroke="none">
<path d="M3614 8301 c-22 -10 -49 -30 -60 -44 l-19 -26 -63 31 c-52 26 -79 32
-146 36 -224 12 -399 -128 -438 -349 -19 -108 19 -242 93 -327 16 -18 29 -38
29 -45 0 -7 2 -166 3 -354 l2 -343 27 -26 c33 -34 100 -41 207 -25 146 23 255
101 316 224 19 40 37 95 41 122 l6 50 -49 25 c-54 29 -88 73 -98 129 -25 150
140 258 272 179 l31 -19 4 -120 c3 -113 5 -122 27 -140 28 -23 98 -26 127 -5
17 13 20 31 24 163 l5 148 120 6 c105 4 127 9 180 34 76 37 158 118 193 192
26 56 27 64 30 272 3 169 1 216 -10 222 -7 5 -193 9 -413 9 -368 0 -403 -2
-441 -19z"/>
<path d="M2965 6643 c-78 -12 -199 -48 -283 -84 -383 -163 -729 -462 -959
-828 l-54 -85 37 -19 c53 -27 119 -99 150 -165 37 -79 40 -134 34 -732 l-5
-515 -32 -66 c-72 -147 -208 -218 -413 -217 -30 1 -76 0 -102 -1 l-48 -1 -2
-232 -3 -233 -22 42 c-22 40 -23 54 -23 242 0 148 3 200 12 203 7 3 -2 10 -20
16 -18 6 -30 7 -27 2 4 -6 14 -11 23 -12 9 -1 -50 -5 -133 -8 -113 -4 -153 -2
-161 8 -13 14 -28 16 -19 2 3 -5 1 -10 -4 -10 -6 0 -11 6 -11 13 0 9 -2 9 -9
-1 -6 -10 -51 -13 -209 -10 -110 2 -195 0 -189 -4 7 -4 103 -8 215 -8 l202 0
0 -243 c0 -181 -3 -246 -12 -256 -8 -9 -9 -12 -1 -7 7 4 13 -10 18 -42 3 -27
20 -72 36 -101 32 -56 120 -151 139 -151 6 0 8 -5 4 -11 -4 -7 -1 -10 7 -7 8
3 30 -3 49 -12 20 -10 58 -21 85 -26 31 -4 43 -9 33 -13 -10 -3 63 -6 161 -6
99 0 177 3 174 8 -4 6 4 8 49 11 9 1 20 5 24 9 5 4 0 5 -11 1 -20 -7 -20 -7
-1 15 11 12 26 19 33 17 7 -3 18 5 23 17 11 21 11 21 -4 3 -20 -25 -20 -10 -1
24 17 30 19 98 4 137 -13 35 -68 93 -88 93 -11 0 -12 3 -4 11 8 8 17 7 34 -2
22 -11 23 -11 11 4 -12 14 -75 21 -67 7 7 -12 -222 3 -250 16 -27 13 -13 14
140 11 94 -1 149 -1 123 1 -40 2 -48 6 -48 23 0 23 7 24 56 2 36 -17 121 -18
1185 -23 l1145 -5 42 -28 c56 -36 84 -94 90 -182 3 -62 1 -76 -25 -125 -22
-43 -40 -62 -81 -85 -28 -17 -49 -36 -47 -42 2 -7 82 -253 176 -546 167 -519
173 -533 191 -515 16 16 37 18 204 18 l186 0 39 -39 c38 -38 39 -40 39 -110
l0 -71 72 0 c39 0 68 -3 65 -7 -4 -3 -35 -5 -70 -4 -34 1 -58 -1 -54 -5 11
-11 117 -22 117 -12 0 4 8 8 18 8 14 0 15 -2 2 -10 -12 -7 -10 -9 8 -7 26 2
26 1 6 21 -8 9 -11 16 -5 16 5 0 17 -10 27 -22 13 -18 15 -19 10 -4 -5 13 -2
17 9 12 8 -3 15 0 15 5 0 6 -9 9 -20 6 -17 -4 -24 9 -59 116 -74 229 -459
1421 -570 1764 -61 189 -119 360 -130 381 -23 46 -94 113 -148 140 -68 35
-145 42 -470 42 l-314 0 3 68 3 67 318 3 c265 2 317 5 317 16 0 23 51 78 67
72 8 -3 11 -1 8 4 -4 7 373 10 1099 10 l1106 0 0 -955 0 -955 -31 0 c-20 0
-49 -13 -80 -36 -27 -20 -49 -37 -49 -39 0 -8 71 -351 76 -367 4 -15 -1 -18
-35 -18 l-41 0 0 -239 0 -238 -57 -6 c-45 -5 -63 -12 -86 -35 -57 -58 -42
-163 29 -197 31 -14 113 -16 783 -18 660 -2 747 0 744 13 -2 12 -162 800 -189
932 -5 27 -7 27 -92 30 l-86 3 -21 105 -21 105 -279 5 -280 5 -3 840 c-2 462
0 891 3 953 l7 112 594 0 c356 0 594 4 594 9 0 5 28 23 62 40 76 38 157 42
218 11 74 -38 153 -179 204 -367 l24 -88 4 145 3 145 82 5 81 5 -49 65 c-27
36 -64 95 -81 132 l-33 67 -1172 1 -1173 0 -1 23 c-1 16 -2 18 -6 5 -4 -17
-88 -18 -1579 -18 l-1574 0 1 38 2 37 7 -35 c7 -35 7 -35 9 -5 1 17 4 41 6 55
5 22 4 22 -4 5 -13 -28 -13 -4 1 71 6 37 15 61 21 57 6 -3 7 -1 3 6 -4 6 0 37
9 68 12 41 19 53 26 42 5 -9 9 -10 9 -2 0 6 15 14 33 16 31 4 31 4 -5 5 -23 1
-38 7 -38 15 0 18 55 123 102 194 37 58 58 72 58 38 0 -23 48 -126 76 -162 51
-67 53 -67 427 -73 185 -3 337 -2 337 2 0 4 -8 12 -18 17 -11 6 -45 43 -78 83
-98 123 -138 173 -164 208 -14 18 -61 79 -105 134 -45 56 -92 117 -105 136
-14 19 -94 123 -178 230 -85 107 -165 218 -178 245 -34 71 -34 179 0 252 25
53 91 125 136 147 107 55 252 37 341 -42 19 -17 77 -84 129 -151 94 -119 95
-120 98 -87 4 49 -23 157 -58 225 -36 72 -123 168 -191 212 -91 58 -171 81
-294 84 -60 2 -123 1 -140 -2z m35 -2413 l0 -70 -160 0 -160 0 0 70 0 70 160
0 160 0 0 -70z"/>
<path d="M6821 6159 c-15 -43 -13 -49 4 -19 19 33 19 21 0 -21 -8 -19 -15 -27
-15 -19 -1 13 -2 13 -9 0 -5 -8 -11 -26 -15 -40 l-6 -25 13 25 c6 14 19 25 27
25 8 0 17 11 20 25 l6 25 7 -27 c4 -15 16 -29 26 -33 16 -5 18 -11 11 -34 -4
-16 -17 -38 -29 -50 -24 -24 -25 -34 -10 -63 9 -16 8 -19 -3 -16 -7 2 -19 23
-26 46 -13 38 -32 57 -32 32 0 -5 5 -10 10 -10 6 0 10 -7 10 -15 0 -8 -4 -15
-9 -15 -12 0 -25 38 -23 65 2 22 -37 -58 -41 -84 -1 -9 -6 -21 -9 -27 -6 -9
-114 -293 -133 -349 -6 -17 -5 -18 5 -5 9 12 11 8 6 -19 -7 -38 -24 -64 -37
-56 -4 3 1 15 12 26 36 36 13 31 -27 -6 -22 -19 -52 -39 -69 -44 -26 -8 -23
-9 21 -7 29 0 50 4 47 9 -2 4 5 7 16 7 29 0 54 43 49 84 -2 19 -1 33 2 31 3
-2 13 3 23 10 15 11 16 13 2 19 -20 7 -19 29 4 50 12 11 17 26 14 44 -3 25 -3
26 6 5 12 -27 17 -28 25 -7 3 8 2 13 -3 10 -13 -8 -22 23 -13 41 7 12 11 8 21
-15 7 -17 10 -35 7 -40 -3 -6 1 -13 10 -16 9 -4 14 -13 10 -22 -3 -8 -2 -13 3
-10 5 3 11 0 14 -8 4 -9 0 -13 -11 -11 -28 4 -44 -14 -27 -32 20 -19 19 -53
-1 -53 -10 0 -13 -6 -9 -19 7 -25 -4 -51 -20 -45 -18 7 -27 -24 -14 -48 6 -11
12 -18 14 -16 1 1 21 52 44 112 37 99 39 110 26 129 -8 12 -15 32 -15 44 0 13
-4 23 -9 23 -10 0 -25 36 -24 60 0 33 16 70 26 63 6 -4 8 0 4 9 -3 9 1 24 8
35 8 10 15 32 15 48 0 24 2 27 11 15 8 -12 9 -10 4 9 -5 16 -4 21 4 17 6 -4
11 -18 11 -32 0 -14 -4 -22 -10 -19 -5 3 -10 -2 -10 -12 0 -11 -5 -24 -11 -30
-15 -15 -4 -43 17 -43 9 0 18 9 21 20 3 11 9 20 14 20 5 0 6 -6 3 -14 -3 -8
-1 -17 5 -21 6 -3 11 -16 10 -28 0 -21 -1 -21 -10 -2 l-9 20 1 -20 c2 -42 -1
-66 -9 -61 -5 3 -19 -2 -31 -10 -18 -13 -21 -22 -16 -47 4 -18 11 -36 15 -40
11 -12 29 47 23 75 -3 16 -2 19 5 10 6 -9 15 3 30 43 20 52 21 59 7 85 -8 16
-15 31 -15 34 0 10 34 -2 38 -14 3 -7 0 -10 -7 -6 -7 5 -9 1 -4 -10 5 -14 7
-14 14 -1 5 8 10 23 12 33 2 11 8 29 15 41 7 12 13 31 15 42 2 11 6 23 9 27 4
3 4 13 1 22 -4 10 -2 13 5 8 7 -4 12 -3 12 3 0 5 -4 12 -10 16 -5 3 -7 11 -5
18 2 7 0 28 -5 47 -9 34 -9 34 -6 -10 l5 -45 -25 28 c-14 16 -24 41 -24 58 0
38 -15 37 -29 -2z"/>
<path d="M5075 5442 c-16 -2 -38 -11 -50 -19 -15 -12 -16 -14 -2 -10 9 4 17 2
17 -3 0 -6 -4 -10 -9 -10 -5 0 -17 -3 -27 -7 -12 -4 -15 -3 -10 6 5 7 -12 3
-35 -9 -56 -29 -57 -29 -23 -27 16 1 31 4 34 7 8 9 98 30 125 30 14 0 25 5 25
10 0 7 220 10 640 10 575 0 640 2 640 16 0 14 -64 15 -647 12 -357 -1 -661 -4
-678 -6z"/>
<path d="M5694 5350 c-623 -4 -834 -8 -849 -17 -16 -10 166 -12 853 -13 543 0
871 3 867 9 -3 5 -1 13 5 16 6 4 10 3 9 -2 -3 -20 2 -23 21 -13 31 17 15 29
-34 27 -24 -1 -417 -4 -872 -7z m389 -17 c-222 -2 -584 -2 -805 0 -222 1 -41
2 402 2 443 0 624 -1 403 -2z"/>
<path d="M5397 5154 c-14 -14 -23 -32 -20 -40 3 -8 0 -14 -6 -14 -32 0 1 -110
38 -130 27 -14 30 -13 28 9 -1 13 -7 18 -19 16 -10 -2 -21 1 -24 7 -5 7 -2 8
7 3 9 -6 8 -2 -3 11 -23 26 -28 84 -8 84 6 0 8 -11 4 -25 -4 -16 -2 -25 6 -25
6 0 9 -4 6 -9 -3 -5 1 -14 9 -21 8 -7 15 -11 16 -9 4 22 6 70 2 57 -2 -10 -9
-18 -14 -18 -15 0 -10 36 9 69 13 25 24 31 50 31 20 0 31 -5 30 -12 -2 -10 84
-14 397 -18 220 -3 406 -9 413 -13 6 -5 12 -4 12 0 0 13 58 15 65 3 3 -5 42
-10 86 -10 46 0 79 -4 79 -10 0 -5 4 -10 10 -10 5 0 7 7 4 15 -5 12 -26 15
-93 17 -47 1 -68 3 -46 5 22 3 44 9 50 14 5 5 16 9 25 9 13 0 13 -1 0 -10 -9
-6 -10 -10 -3 -10 6 0 15 5 18 10 3 6 16 10 28 10 18 0 20 -2 7 -11 -13 -9
-12 -10 3 -5 12 4 17 0 17 -14 0 -11 5 -20 10 -20 13 0 13 6 -5 40 -13 26 -19
28 -55 25 -22 -2 -42 1 -46 6 -4 7 -188 10 -520 8 -283 -1 -517 1 -521 5 -11
10 -19 7 -46 -20z m1088 -9 c0 -7 -168 -10 -485 -10 l-485 0 485 5 485 5 -485
5 -485 5 485 0 c317 0 485 -3 485 -10z"/>
<path d="M6324 5066 c-17 -6 -38 -17 -47 -24 -9 -8 -22 -10 -28 -6 -8 4 -9 3
-5 -4 5 -8 -1 -12 -16 -12 -17 0 -19 3 -9 9 9 6 2 8 -22 8 -26 -1 -33 -5 -29
-16 4 -10 7 -11 10 -3 8 25 21 11 17 -19 -3 -23 0 -29 11 -25 8 3 24 2 36 -3
18 -7 13 -9 -23 -9 -43 -1 -47 1 -43 21 l5 22 -10 -22 c-10 -22 -14 -23 -163
-23 -505 -1 -563 -2 -538 -12 24 -10 158 -11 310 -3 41 3 179 5 305 5 l230 0
-44 20 c-24 11 -49 20 -57 20 -8 0 -14 4 -14 9 0 5 6 8 13 7 17 -2 157 57 157
67 0 9 -6 8 -46 -7z"/>
<path d="M3478 4593 c419 -2 1105 -2 1525 0 419 1 76 2 -763 2 -839 0 -1182
-1 -762 -2z"/>
<path d="M7910 3496 l0 -345 44 -26 c24 -14 64 -29 87 -33 55 -10 130 3 146
24 17 24 18 550 0 583 -18 35 -140 100 -254 135 l-23 7 0 -345z"/>
<path d="M1090 3010 l-195 -6 198 -2 197 -2 0 -854 0 -853 28 3 c15 2 99 4
187 5 101 1 171 6 190 14 43 17 84 69 91 115 6 37 7 38 48 36 22 -1 95 -3 161
-4 l121 -2 2 -26 c6 -70 89 -136 169 -134 21 0 342 0 713 -1 l675 -1 3 123 c4
149 -7 194 -57 242 -47 46 -77 57 -161 57 -64 0 -69 2 -72 23 -3 19 -11 23
-53 27 l-50 5 -3 383 -2 384 70 218 c38 119 70 222 70 229 0 8 -139 11 -532
11 -352 0 -535 3 -542 10 -13 13 -29 13 -21 0 7 -12 -1012 -14 -1029 -2 -6 4
-99 5 -206 2z m878 -196 l62 -6 0 -174 c0 -137 3 -181 15 -204 15 -30 61 -60
90 -60 13 0 15 -38 15 -320 l0 -320 -290 0 -290 0 0 548 0 547 167 -2 c93 -2
196 -5 231 -9z m792 -6 c0 -2 -63 -196 -139 -433 l-139 -430 -46 -3 -46 -3 0
215 c0 188 2 216 15 216 32 0 77 32 91 65 10 25 14 80 14 205 l0 170 125 0
c69 0 125 -1 125 -2z"/>
<path d="M7910 2667 c0 -68 -4 -97 -12 -100 -7 -2 -5 -3 5 -2 9 2 17 0 17 -4
0 -4 7 -61 15 -126 8 -66 15 -121 15 -122 0 -2 155 -3 344 -3 l345 0 5 53 c3
28 9 86 14 129 l8 76 -151 6 c-82 3 -161 5 -175 4 -14 -1 -53 -1 -87 0 -57 2
-63 4 -63 24 0 53 -126 134 -237 153 l-43 7 0 -95z"/>
<path d="M7960 2221 c0 -10 3 -33 6 -50 l7 -31 326 2 326 3 3 48 3 47 -335 0
c-322 0 -336 -1 -336 -19z"/>
<path d="M7980 2043 c4 -27 25 -204 46 -395 l38 -348 246 0 245 0 2 38 c5 66
33 402 48 561 8 85 15 162 15 173 0 17 -16 18 -324 18 l-323 0 7 -47z"/>
<path d="M7910 1637 l0 -337 55 0 c39 0 55 4 55 13 0 8 -16 115 -35 238 -20
123 -42 266 -50 318 -8 52 -17 96 -20 99 -3 3 -5 -146 -5 -331z"/>
<path d="M4290 1565 l0 -155 673 2 672 3 0 85 c0 100 -17 138 -82 184 -35 24
-55 30 -117 34 l-76 5 0 -56 c0 -62 -6 -67 -74 -67 -44 0 -73 20 -74 50 0 8
-4 26 -7 40 -5 19 -4 22 4 10 9 -13 11 -13 11 3 0 13 -9 17 -41 17 -38 0 -39
-1 -24 -17 14 -14 18 -14 26 -2 5 9 9 10 9 2 0 -6 -5 -15 -10 -18 -6 -4 -7
-11 -4 -17 4 -6 10 -5 15 3 7 11 9 9 9 -6 0 -11 -7 -31 -16 -43 -18 -26 -8
-30 13 -4 13 15 14 15 9 0 -4 -12 -1 -15 11 -11 10 4 14 2 10 -4 -14 -23 58
-31 111 -12 27 9 32 17 38 55 6 40 9 44 34 44 24 0 27 -4 24 -22 l-5 -23 10
23 c6 12 19 22 30 22 11 0 27 3 37 7 11 4 15 3 10 -5 -3 -6 -2 -13 3 -16 5 -3
7 -22 6 -42 -3 -28 -1 -34 8 -25 15 15 30 14 21 -1 -5 -8 -2 -9 9 -5 10 4 24
10 32 13 16 7 34 -44 19 -55 -5 -3 -10 -35 -11 -71 l-2 -65 9 64 c12 84 18 87
16 6 -1 -57 -4 -66 -21 -71 -11 -2 -308 -3 -660 -2 l-640 3 -3 133 -3 133 215
-3 c118 -2 212 0 208 4 -4 4 -100 9 -212 11 l-205 3 228 1 c202 1 251 -4 217
-20 -6 -3 -5 -4 2 -3 7 2 13 9 13 17 0 12 -41 14 -237 17 l-238 2 0 -155z"/>
<path d="M0 400 l0 -400 5000 0 5000 0 0 400 0 400 -5000 0 -5000 0 0 -400z
m1395 106 c25 -11 33 -19 29 -30 -7 -19 -5 -19 -40 -1 -36 18 -55 19 -78 2
-28 -21 -9 -45 49 -62 87 -25 108 -74 54 -127 -29 -29 -33 -30 -90 -25 -68 6
-72 8 -64 29 5 13 12 14 40 5 50 -15 100 1 100 33 0 16 -8 28 -25 36 -87 40
-105 51 -108 67 -14 70 53 106 133 73z m587 -48 l3 -62 36 32 c20 18 45 32 55
32 14 0 9 -9 -21 -40 l-39 -40 42 -60 c40 -57 41 -60 20 -60 -16 0 -32 14 -53
45 -16 25 -33 45 -37 45 -5 0 -8 -20 -8 -45 0 -38 -3 -45 -20 -45 -19 0 -20 7
-20 130 0 122 1 130 20 130 16 0 19 -8 22 -62z m-1353 -24 c12 -15 21 -40 21
-55 0 -29 0 -29 -65 -29 -72 0 -83 -12 -44 -51 17 -17 30 -20 65 -16 43 4 59
-5 28 -17 -45 -17 -106 3 -123 41 -45 98 56 206 118 127z m456 3 c20 -16 28
-35 32 -69 5 -42 3 -50 -25 -78 -41 -41 -83 -41 -124 0 -28 28 -30 36 -25 78
9 82 84 119 142 69z m622 8 c30 -21 44 -75 32 -120 -25 -88 -143 -88 -168 0
-20 72 20 135 84 135 17 0 40 -7 52 -15z"/>
<path d="M986 424 c-50 -50 -21 -144 44 -144 48 0 80 50 66 104 -13 53 -75 75
-110 40z"/>
</g>
</svg>
